<?xml version="1.0" encoding="UTF-8"?>
<svg id="Layer_2" data-name="Layer 2" xmlns="http://www.w3.org/2000/svg" viewBox="0 0 428.56 160.76">
  <defs>
    <style>
      .cls-1 {
        fill: #0056a2;
      }

      .cls-2 {
        fill: #00b4eb;
      }

      .cls-3 {
        fill: #50b748;
      }
    </style>
  </defs>
  <g id="Layer_1-2" data-name="Layer 1">
    <g>
      <g>
        <path class="cls-2" d="m5.06,52.36c-.9,0-1.7-.2-2.5-.7-2.4-1.4-3.3-4.5-1.9-7L24.96,2.56c1.4-2.4,4.5-3.3,7-1.9,2.4,1.4,3.3,4.5,1.9,7L9.46,49.86c-.9,1.6-2.6,2.5-4.4,2.5Z"/>
        <path class="cls-1" d="m5.06,93.06c-.9,0-1.7-.2-2.5-.7-2.4-1.4-3.3-4.5-1.9-7l24.3-42.1c1.4-2.4,4.5-3.3,7-1.9,2.4,1.4,3.3,4.5,1.9,7l-24.4,42.1c-.9,1.7-2.6,2.6-4.4,2.6Z"/>
        <path class="cls-3" d="m45.26,93.06c-.9,0-1.7-.2-2.6-.7-2.4-1.4-3.3-4.5-1.9-7l24.3-42.1c1.4-2.4,4.5-3.3,7-1.9,2.4,1.4,3.3,4.5,1.9,7l-24.3,42.1c-.9,1.7-2.6,2.6-4.4,2.6Z"/>
        <circle class="cls-3" cx="43.66" cy="55.96" r="5.1"/>
      </g>
      <g>
        <path class="cls-1" d="m92.36,105.96c-4.7-1.4-8.8-2.6-8.8-6s4.2-3.6,6-3.6c3.6,0,8.6,1.6,12.8,4.1l.5.3,3.7-8-.3-.2c-4.4-2.9-10.4-4.7-15.9-4.7-10.1,0-16.7,5-16.7,12.9,0,9.1,7.9,11.4,14.3,13.2,4.8,1.4,9,2.6,9,6.1,0,2.7-2.5,4.3-7,4.3s-10.4-2.5-14.7-6.3l-.5-.4-3.9,7.9.3.2c5,4.4,11.9,7.1,18.7,7.1,10.4,0,17.1-5.2,17.1-13.3-.2-9.3-8.1-11.7-14.6-13.6Z"/>
        <polygon class="cls-1" points="121.96 124.06 121.96 88.16 112.76 88.16 112.76 132.46 140.66 132.46 140.66 124.06 121.96 124.06"/>
        <polygon class="cls-1" points="169.86 88.16 137.36 88.16 137.36 96.46 150.86 96.46 150.86 132.46 160.26 132.46 160.26 96.46 174.06 96.46 169.86 88.16"/>
        <path class="cls-3" d="m236.06,87.96c-13.4,0-23.6,9.6-23.6,22.4s10.4,22.5,23.6,22.5,23.6-9.9,23.6-22.5-10.1-22.4-23.6-22.4Zm.1,36.5c-7.9,0-14.3-6.3-14.3-14.1s6.4-14,14.3-14,14,6.3,14,14-6.2,14.1-14,14.1Z"/>
        <path class="cls-3" d="m293.96,109.06c3.9-1.6,6.3-5.1,6.3-9.5,0-7-5.9-11.3-15.4-11.3h-19.7v44.3h20.3c10.2,0,16.5-4.8,16.5-12.4-.1-5.5-3.1-9.6-8-11.1Zm-9.6-3.2h-10.1v-9.6h10.3c3.9,0,6.2,1.7,6.2,4.7,0,3.1-2.3,4.9-6.4,4.9Zm-10,8h10.3c4.8,0,7.7,1.9,7.7,5.2,0,1.7-.7,3-2,3.9s-3.3,1.5-5.8,1.5h-10.3l.1-10.6h0Z"/>
        <rect class="cls-3" x="308.06" y="88.16" width="9.3" height="44.3"/>
        <polygon class="cls-3" points="321.26 88.16 321.26 96.46 334.76 96.46 334.76 132.46 344.06 132.46 344.06 96.46 357.56 96.46 357.56 88.16 321.26 88.16"/>
        <polygon class="cls-3" points="370.86 124.26 370.86 114.36 391.86 114.36 391.86 106.16 370.86 106.16 370.86 96.36 394.26 96.36 394.26 88.16 361.56 88.16 361.56 132.46 395.06 132.46 395.06 124.26 370.86 124.26"/>
        <polygon class="cls-3" points="409.86 124.06 409.86 88.16 400.56 88.16 400.56 132.46 428.56 132.46 428.56 124.06 409.86 124.06"/>
        <polygon class="cls-3" points="196.76 88.16 183.46 115.36 176.86 102.26 167.86 102.26 180.46 128.06 186.46 128.06 198.46 103.16 198.56 132.46 207.06 132.46 207.06 88.16 196.76 88.16"/>
      </g>
      <g>
        <path class="cls-1" d="m162.86,146.46v2.1h-4.5v12h-2.4v-12h-4.5v-2.1h11.4Z"/>
        <path class="cls-1" d="m177.16,154.16v6.4h-2.3v-5.8c0-1.6-1-2.6-2.6-2.6-1.9,0-3.1,1.5-3.1,3.4v5h-2.3v-14.2h2.3v5.8c.8-1.5,2.1-2.2,4-2.2,2.5.1,4,1.7,4,4.2Z"/>
        <path class="cls-1" d="m192.76,156.06h-8.1c.4,1.7,1.6,2.7,3.3,2.7,1.2,0,2.2-.4,3-1.3l1.2,1.3c-1.1,1.1-2.6,1.8-4.4,1.8-3.3,0-5.5-2.2-5.5-5.4s2.2-5.5,5.4-5.5c3.8.1,5.3,2.6,5.1,6.4Zm-2.1-1.6c-.1-1.7-1.2-2.8-3-2.8-1.7,0-2.9,1.1-3.2,2.8h6.2Z"/>
        <path class="cls-1" d="m213.66,148.56c-2.8,0-5,2.2-5,5s2.2,5,5,5c1.4,0,2.9-.6,3.9-1.7l1.4,1.6c-1.4,1.4-3.5,2.3-5.5,2.3-4.1,0-7.3-3.1-7.3-7.2s3.2-7.1,7.4-7.1c2,0,4,.8,5.4,2.2l-1.4,1.7c-1-1.2-2.4-1.8-3.9-1.8Z"/>
        <path class="cls-1" d="m234.26,155.16c0,3.3-2.3,5.5-5.6,5.5s-5.6-2.2-5.6-5.5,2.3-5.4,5.6-5.4,5.6,2.2,5.6,5.4Zm-8.9.1c0,2.1,1.3,3.5,3.3,3.5s3.3-1.4,3.3-3.5-1.4-3.5-3.3-3.5-3.3,1.4-3.3,3.5Z"/>
        <path class="cls-1" d="m249.96,153.86v6.7h-2.3v-6c0-1.6-1-2.6-2.6-2.6-1.8,0-2.9,1.3-3,2.9v5.7h-2.3v-10.7h2.3v2.1c.8-1.5,2.1-2.1,4-2.1,2.4-.1,3.9,1.5,3.9,4Z"/>
        <path class="cls-1" d="m266.36,153.86v6.7h-2.3v-6c0-1.6-1-2.6-2.6-2.6-1.8,0-2.9,1.3-3,2.9v5.7h-2.3v-10.7h2.3v2.1c.8-1.5,2.1-2.1,4-2.1,2.4-.1,3.9,1.5,3.9,4Z"/>
        <path class="cls-1" d="m281.96,156.06h-8.1c.4,1.7,1.6,2.7,3.3,2.7,1.2,0,2.2-.4,3-1.3l1.2,1.3c-1.1,1.1-2.6,1.8-4.4,1.8-3.3,0-5.5-2.2-5.5-5.4s2.2-5.5,5.4-5.5c3.9.1,5.4,2.6,5.1,6.4Zm-2-1.6c-.1-1.7-1.2-2.8-3-2.8-1.7,0-2.9,1.1-3.1,2.8h6.1Z"/>
        <path class="cls-1" d="m291.96,151.76c-1.9,0-3.2,1.4-3.2,3.4s1.3,3.4,3.2,3.4c1.3,0,2.4-.4,3.2-1.3l1.3,1.3c-1,1.3-2.5,2-4.6,2-3.2,0-5.4-2.2-5.4-5.4s2.2-5.5,5.4-5.5c1.9,0,3.4.6,4.4,1.8l-1.3,1.5c-.7-.7-1.8-1.2-3-1.2Z"/>
        <path class="cls-1" d="m307.86,159.86c-.8.5-1.7.8-2.6.8-1.6,0-3-.9-3-3.1v-5.6h-1.5v-1.7h1.5v-2.9h2.3v2.9h3.2v1.7h-3.2v5.1c0,1.1.4,1.5,1.2,1.5.5,0,1-.2,1.6-.5l.5,1.8Z"/>
        <path class="cls-1" d="m315.56,147.86c0,.8-.6,1.4-1.4,1.4s-1.4-.6-1.4-1.4.6-1.4,1.4-1.4,1.4.5,1.4,1.4Zm-.2,3v9.7h-2.3v-9.7h2.3Z"/>
        <path class="cls-1" d="m332.06,155.16c0,3.3-2.3,5.5-5.6,5.5s-5.6-2.2-5.6-5.5,2.3-5.4,5.6-5.4,5.6,2.2,5.6,5.4Zm-8.9.1c0,2.1,1.4,3.5,3.3,3.5s3.3-1.4,3.3-3.5-1.4-3.5-3.3-3.5c-2,0-3.3,1.4-3.3,3.5Z"/>
        <path class="cls-1" d="m347.76,153.86v6.7h-2.3v-6c0-1.6-1-2.6-2.6-2.6-1.8,0-2.9,1.3-3,2.9v5.7h-2.3v-10.7h2.3v2.1c.8-1.5,2.1-2.1,4-2.1,2.4-.1,3.9,1.5,3.9,4Z"/>
      </g>
    </g>
  </g>
</svg>